<?xml version="1.0" standalone="no"?>
<!DOCTYPE svg PUBLIC "-//W3C//DTD SVG 20010904//EN"
 "http://www.w3.org/TR/2001/REC-SVG-20010904/DTD/svg10.dtd">
<svg version="1.0" xmlns="http://www.w3.org/2000/svg"
 width="1615.000000pt" height="1615.000000pt" viewBox="0 0 1615.000000 1615.000000"
 preserveAspectRatio="xMidYMid meet">
<metadata>
Created by potrace 1.11, written by Peter Selinger 2001-2013
</metadata>
<g transform="translate(0.000000,1615.000000) scale(0.100000,-0.100000)"
fill="#000000" stroke="none">
<path d="M6118 15015 c-2 -2 -34 -6 -73 -9 -149 -14 -212 -21 -315 -37 -36 -6
-76 -12 -90 -14 -54 -8 -316 -66 -384 -85 -377 -110 -676 -243 -961 -428 -82
-53 -204 -141 -225 -162 -3 -3 -34 -30 -70 -60 -157 -132 -334 -334 -458 -523
-143 -218 -269 -513 -357 -832 -9 -33 -20 -73 -25 -90 -8 -25 -60 -247 -74
-319 -12 -55 -37 -183 -42 -210 -2 -17 -9 -47 -14 -66 -5 -19 -11 -51 -14 -70
-3 -19 -12 -68 -21 -108 -8 -40 -15 -75 -15 -78 0 -2 -263 -4 -584 -4 l-584 0
-16 -87 c-20 -110 -17 -95 -71 -363 -24 -124 -46 -236 -49 -250 -14 -74 -80
-408 -96 -490 -11 -52 -20 -99 -20 -105 0 -7 182 -10 576 -10 317 0 578 -3
580 -7 4 -6 -21 -144 -72 -393 -2 -11 -20 -103 -40 -205 -40 -205 -45 -231
-48 -245 -2 -5 -6 -28 -10 -50 -4 -22 -14 -71 -22 -110 -7 -38 -16 -81 -18
-95 -2 -14 -27 -140 -55 -280 -27 -140 -53 -268 -55 -285 -3 -16 -8 -39 -10
-50 -2 -11 -11 -54 -19 -95 -9 -41 -18 -86 -20 -100 -8 -45 -107 -550 -142
-725 -19 -93 -36 -183 -39 -200 -3 -16 -28 -142 -56 -280 -28 -137 -52 -263
-55 -280 -2 -16 -9 -52 -15 -80 -7 -27 -14 -61 -16 -75 -3 -14 -18 -92 -34
-175 -16 -82 -31 -161 -34 -175 -2 -14 -21 -108 -41 -210 -20 -102 -39 -196
-42 -210 -16 -92 -85 -438 -89 -452 -5 -15 65 -17 1011 -17 773 0 1015 3 1016
12 0 7 2 19 4 27 1 8 6 32 9 54 3 21 8 41 10 45 3 3 7 27 11 51 4 25 18 99 31
165 14 66 27 134 30 150 2 17 13 73 24 125 11 52 22 109 25 125 9 44 10 53 76
384 32 168 62 318 65 335 3 17 9 50 15 74 5 23 12 59 15 80 3 20 7 39 9 42 2
3 6 26 10 50 4 25 13 72 20 105 8 33 17 76 20 95 3 19 44 231 91 470 48 239
88 445 90 458 4 24 5 26 29 146 8 44 18 93 21 110 2 17 7 38 9 46 2 8 7 29 9
45 3 17 15 75 26 130 11 55 23 116 26 135 3 19 9 51 14 70 5 19 12 51 15 70 3
19 21 114 40 210 19 96 37 186 39 200 3 14 35 176 71 360 37 184 69 351 72
370 3 19 9 39 14 45 12 12 2558 14 2566 2 2 -4 -5 -58 -17 -120 -12 -61 -24
-123 -26 -137 -2 -14 -9 -47 -15 -75 -5 -27 -12 -66 -15 -85 -3 -19 -9 -51
-14 -70 -5 -19 -12 -51 -15 -70 -5 -29 -17 -91 -49 -260 -7 -35 -25 -130 -31
-160 -5 -26 -45 -231 -51 -265 -2 -11 -22 -112 -44 -225 -21 -113 -41 -216
-44 -230 -3 -14 -10 -50 -16 -80 -6 -30 -13 -68 -16 -85 -3 -16 -25 -133 -50
-260 -53 -275 -81 -420 -88 -458 -3 -15 -7 -35 -10 -45 -3 -9 -7 -33 -10 -52
-3 -19 -13 -71 -21 -115 -9 -44 -19 -91 -21 -105 -3 -14 -20 -104 -39 -200
-59 -307 -134 -694 -139 -723 -3 -15 -7 -35 -10 -45 -3 -9 -7 -33 -10 -52 -3
-19 -14 -78 -25 -130 -10 -52 -22 -111 -25 -130 -3 -19 -30 -161 -61 -315 -30
-154 -55 -283 -55 -288 0 -4 453 -6 1007 -5 l1008 3 107 545 c58 300 109 559
112 575 2 17 7 44 11 60 5 23 51 260 81 410 2 11 8 45 14 75 13 71 16 85 40
205 11 55 22 111 25 125 3 14 9 48 15 75 5 28 11 61 14 75 2 14 29 151 60 305
30 154 57 293 60 308 3 15 12 60 20 100 12 58 54 274 80 407 5 30 56 287 62
315 2 11 6 31 9 45 3 14 14 72 25 130 12 58 23 116 26 130 2 14 13 70 24 125
11 55 22 111 25 125 3 14 14 70 24 125 19 95 24 118 36 183 3 15 17 86 31 157
14 72 28 146 32 165 l8 35 944 2 c520 1 950 1 956 -1 7 -3 -1 -58 -22 -163
-18 -87 -35 -169 -37 -183 -3 -14 -30 -155 -62 -315 -31 -159 -59 -299 -61
-310 -2 -11 -8 -42 -14 -70 -5 -27 -11 -61 -14 -75 -2 -14 -11 -59 -19 -100
-9 -41 -18 -86 -20 -100 -3 -14 -21 -107 -41 -208 -20 -101 -38 -197 -41 -215
-3 -18 -10 -48 -15 -67 -5 -19 -11 -51 -14 -70 -3 -19 -28 -147 -55 -285 -27
-137 -68 -344 -90 -460 -23 -115 -43 -219 -45 -230 -2 -11 -16 -78 -30 -149
-85 -423 -103 -794 -51 -1031 47 -214 127 -360 269 -492 204 -191 589 -346
991 -399 22 -3 54 -7 70 -9 171 -26 756 -26 905 0 14 2 57 6 95 10 39 3 95 10
125 15 30 5 78 12 105 15 28 4 57 8 65 10 8 3 33 7 55 11 172 25 704 160 729
185 6 5 11 19 13 31 2 13 19 103 39 200 19 97 37 185 39 196 14 74 63 325 116
592 67 341 69 356 54 353 -6 -1 -37 -5 -70 -8 -33 -4 -69 -9 -80 -11 -11 -2
-42 -7 -70 -10 -27 -3 -59 -7 -70 -9 -11 -2 -51 -7 -90 -10 -38 -4 -81 -9 -95
-11 -61 -13 -418 -12 -495 1 -176 29 -255 52 -356 106 -87 46 -145 102 -174
166 -33 70 -40 109 -39 213 0 96 4 128 39 301 13 68 26 135 29 149 2 14 26
131 51 260 46 231 49 247 59 303 3 15 7 35 10 45 3 9 7 34 10 54 3 21 11 59
17 85 6 27 19 93 29 148 11 55 21 109 24 120 2 11 20 105 41 209 38 201 138
708 180 916 13 69 27 136 29 150 2 14 10 53 17 87 l13 62 828 -2 c729 -2 829
0 833 13 2 8 7 33 11 55 4 22 8 47 10 55 3 18 118 596 182 925 l48 240 -828 3
c-563 1 -828 5 -828 12 0 6 7 43 15 83 8 40 16 83 19 97 3 14 14 72 26 130 11
58 22 116 25 130 3 19 123 628 149 760 3 14 8 39 11 55 3 17 10 50 15 75 5 25
12 59 15 75 2 17 29 156 60 309 30 154 53 281 51 283 -3 3 -1575 5 -1992 3
l-42 0 -12 -67 c-7 -38 -14 -75 -15 -83 -2 -8 -13 -62 -24 -120 -12 -58 -23
-114 -25 -125 -2 -11 -36 -182 -75 -380 -38 -198 -73 -373 -75 -389 -3 -16
-10 -52 -16 -80 -6 -28 -12 -60 -14 -71 -2 -11 -32 -162 -66 -335 -35 -173
-64 -324 -65 -335 -2 -20 -10 -20 -3259 -23 l-3258 -2 5 37 c9 71 59 298 94
423 150 549 365 843 728 996 83 35 282 88 370 99 28 3 82 9 120 14 73 9 554 8
615 -2 19 -3 60 -8 90 -11 102 -11 145 -16 176 -21 39 -7 14 -60 253 530 106
259 196 479 201 490 10 20 81 196 119 292 l20 52 -97 30 c-237 74 -391 103
-707 136 -22 2 -65 7 -95 10 -140 15 -204 17 -482 20 -163 1 -298 1 -300 0z"/>
<path d="M9040 14613 c-478 -46 -967 -417 -1141 -868 -67 -171 -88 -278 -89
-445 0 -116 5 -164 30 -258 91 -336 358 -572 710 -627 80 -12 269 -13 335 -1
17 4 46 9 65 12 69 11 247 76 337 122 225 115 434 303 566 507 227 354 274
753 124 1063 -50 104 -84 151 -166 233 -128 128 -268 203 -446 240 -85 18
-249 29 -325 22z"/>
<path d="M14645 12880 c-93 -13 -184 -81 -233 -173 -23 -45 -27 -64 -27 -137
0 -68 5 -94 23 -132 99 -199 356 -244 509 -90 128 129 120 338 -17 459 -61 55
-168 85 -255 73z m129 -54 c145 -44 229 -221 168 -359 -46 -104 -126 -159
-237 -163 -81 -3 -138 18 -193 70 -206 193 -8 533 262 452z"/>
<path d="M14590 12570 l0 -170 28 0 29 0 -1 68 c0 61 2 67 22 70 17 3 30 -11
67 -67 39 -62 49 -71 75 -71 16 0 30 2 30 5 0 3 -22 39 -49 78 -46 68 -48 74
-31 87 37 32 51 90 30 130 -14 26 -63 40 -136 40 l-64 0 0 -170z m144 108 c9
-12 16 -28 16 -34 0 -25 -36 -54 -70 -56 l-34 -3 -3 58 -3 57 40 0 c29 0 43
-6 54 -22z"/>
<path d="M5191 6458 c-179 -27 -344 -200 -358 -377 -6 -81 7 -134 50 -197 105
-155 359 -148 522 15 135 133 169 320 81 446 -61 88 -173 131 -295 113z"/>
<path d="M9635 6462 c-93 -9 -204 -69 -274 -148 -157 -176 -135 -428 45 -515
59 -28 164 -34 237 -13 215 63 363 300 302 486 -41 127 -167 204 -310 190z"/>
<path d="M15082 6454 c-335 -68 -469 -513 -197 -651 168 -86 413 14 514 211
26 52 34 80 45 171 4 25 -16 101 -37 140 -30 58 -111 117 -177 130 -65 12 -85
12 -148 -1z"/>
<path d="M2428 4717 c-63 -18 -122 -59 -153 -105 -23 -36 -29 -64 -26 -126 1
-39 64 -98 122 -115 74 -22 99 -39 99 -67 0 -19 -8 -29 -37 -41 -45 -19 -121
-24 -183 -13 -25 5 -46 7 -47 6 -1 -1 -14 -28 -27 -59 l-25 -56 37 -10 c71
-19 179 -19 262 1 36 9 108 50 133 76 43 44 66 116 55 166 -12 52 -36 77 -101
105 -104 45 -122 56 -125 77 -5 34 39 49 144 49 l93 0 20 50 c10 28 15 54 10
59 -14 15 -199 17 -251 3z"/>
<path d="M810 4658 c-7 -35 -14 -72 -16 -83 -2 -11 -6 -31 -9 -45 -3 -14 -7
-36 -10 -50 -2 -14 -18 -94 -35 -179 -16 -84 -30 -159 -30 -165 0 -19 149 -15
154 4 6 18 24 112 31 160 12 74 5 70 130 70 63 0 116 4 119 9 4 5 9 30 12 55
l7 46 -118 0 c-95 0 -116 3 -112 14 3 7 9 34 12 60 4 25 10 47 14 47 3 1 57 2
118 3 64 1 117 6 123 12 6 6 13 32 16 57 l6 47 -200 0 -199 0 -13 -62z"/>
<path d="M1636 4708 c-3 -7 -16 -30 -28 -50 -47 -76 -316 -515 -323 -528 -2
-3 30 -5 72 -5 85 1 85 2 130 93 l26 52 118 0 c131 0 120 7 135 -86 3 -21 10
-43 15 -49 12 -12 148 -15 155 -3 3 4 -13 85 -35 180 -22 95 -43 189 -46 208
-3 19 -10 49 -15 65 -5 17 -12 44 -15 60 -3 17 -8 37 -10 45 -2 8 -4 18 -4 23
-2 13 -168 8 -175 -5z m68 -183 c5 -39 10 -62 22 -117 6 -30 12 -28 -81 -32
-64 -3 -67 1 -36 52 15 26 40 69 55 95 15 27 29 47 31 45 1 -2 5 -21 9 -43z"/>
<path d="M2927 4706 c-3 -7 -8 -33 -12 -57 l-7 -44 89 -1 c82 0 88 -1 84 -19
-2 -11 -22 -115 -45 -232 -24 -117 -40 -216 -37 -220 7 -9 136 -11 145 -2 3 3
12 39 20 80 17 82 76 390 76 393 0 1 41 1 90 1 56 -1 90 3 91 10 1 12 4 30 14
74 l7 31 -255 0 c-207 0 -256 -3 -260 -14z"/>
<path d="M4101 4683 c-9 -37 -25 -117 -36 -178 -2 -16 -20 -106 -39 -200 -19
-93 -33 -171 -30 -174 8 -8 145 -7 150 1 5 8 9 25 19 79 3 15 25 130 50 255
25 126 45 235 45 242 0 8 -22 12 -75 12 l-74 0 -10 -37z"/>
<path d="M4556 4703 c-5 -15 -43 -205 -60 -299 -2 -11 -13 -68 -25 -125 -35
-175 -40 -155 43 -154 l71 1 30 157 c16 86 33 157 36 157 6 0 14 -15 106 -190
31 -58 60 -109 65 -115 4 -5 40 -10 78 -10 75 -2 75 -1 86 62 2 16 9 48 14 73
5 25 12 56 14 70 6 29 24 124 31 160 3 14 8 41 11 60 3 19 7 43 10 52 3 10 7
30 10 45 2 16 7 38 9 51 6 22 4 23 -67 20 l-72 -3 -13 -60 c-6 -33 -14 -73
-17 -90 -11 -62 -34 -166 -38 -171 -3 -2 -33 51 -68 119 -34 67 -74 141 -87
165 l-25 42 -68 0 c-57 0 -70 -3 -74 -17z"/>
<path d="M5445 4693 c-3 -16 -10 -48 -15 -73 -5 -25 -21 -106 -35 -180 -15
-74 -31 -142 -36 -152 -8 -15 -88 -64 -96 -59 -2 0 -10 1 -18 1 -12 0 -15 -13
-15 -60 l0 -60 38 6 c162 24 230 76 256 196 20 95 62 311 71 366 l7 42 -76 0
c-75 0 -76 0 -81 -27z"/>
<path d="M5887 4698 c-3 -13 -22 -111 -42 -219 -40 -208 -41 -246 -5 -292 69
-87 273 -98 395 -20 64 41 117 118 129 190 3 15 19 95 36 177 16 82 30 157 30
168 0 16 -9 18 -69 18 l-68 0 -37 -186 c-21 -103 -45 -201 -53 -219 -31 -65
-150 -97 -203 -56 -19 15 -24 28 -24 63 0 45 2 59 35 218 11 52 23 114 26 138
l5 42 -75 0 c-69 0 -75 -2 -80 -22z"/>
<path d="M6727 4713 c-6 -10 -25 -102 -52 -253 -2 -8 -10 -49 -19 -90 -8 -41
-17 -88 -20 -105 -3 -16 -9 -43 -12 -60 -16 -78 -16 -78 59 -80 38 -1 71 3 76
9 7 8 51 208 51 232 0 12 39 2 52 -13 14 -16 46 -109 64 -186 3 -15 11 -30 18
-34 18 -12 177 -10 173 2 -2 5 -21 63 -41 127 -35 113 -54 148 -79 148 -7 0
10 12 37 26 99 50 140 138 101 214 -28 54 -63 64 -241 68 -89 2 -164 0 -167
-5z m215 -108 c15 -3 32 -14 38 -24 13 -24 -3 -72 -30 -89 -21 -13 -97 -25
-109 -17 -13 7 9 119 25 131 8 7 23 10 32 9 9 -2 29 -6 44 -10z"/>
<path d="M7380 4717 c0 -4 101 -233 120 -272 25 -53 27 -72 14 -135 -19 -91
-26 -131 -28 -160 -1 -23 2 -25 49 -24 109 2 102 -2 110 57 5 28 9 54 10 57 0
3 7 36 14 73 13 64 19 74 114 190 56 67 103 124 107 127 3 3 20 24 39 48 l33
42 -85 0 -84 0 -78 -106 c-52 -71 -80 -102 -85 -93 -5 7 -21 54 -36 106 l-27
93 -94 0 c-51 0 -93 -1 -93 -3z"/>
<path d="M8570 4700 c0 -26 0 -24 -10 -59 -10 -37 -7 -38 93 -36 42 1 77 -2
77 -5 0 -3 -13 -73 -30 -155 -16 -83 -31 -161 -34 -175 -2 -14 -10 -49 -16
-78 -7 -29 -9 -56 -6 -60 11 -10 137 -8 146 3 5 6 12 26 15 45 3 19 22 113 40
209 19 96 35 183 35 193 0 21 -1 21 105 22 l79 1 12 58 11 57 -258 0 c-252 0
-259 -1 -259 -20z"/>
<path d="M9315 4673 c-5 -26 -9 -52 -10 -58 -7 -28 -48 -232 -52 -254 -2 -14
-13 -71 -24 -125 -11 -54 -17 -101 -14 -104 10 -11 135 -9 144 2 7 9 26 89 48
206 6 32 8 34 37 26 21 -5 29 -18 46 -79 12 -39 28 -92 36 -117 l14 -46 85 1
c46 1 86 3 88 5 2 3 -13 59 -34 125 -26 83 -46 127 -63 141 l-24 21 37 16 c80
36 129 113 118 184 -13 79 -71 101 -273 102 l-152 2 -7 -48z m259 -85 c33 -47
-22 -111 -98 -114 -49 -2 -46 -8 -30 71 11 57 15 64 42 67 43 5 72 -3 86 -24z"/>
<path d="M10065 4683 c-5 -21 -9 -42 -10 -48 -2 -5 -5 -26 -8 -45 -4 -19 -16
-80 -27 -135 -11 -55 -23 -113 -26 -130 -3 -16 -11 -61 -19 -100 -8 -38 -15
-77 -15 -85 0 -13 30 -15 210 -15 l211 0 8 35 c18 71 19 79 7 83 -6 2 -66 3
-134 2 l-124 0 7 45 c4 25 8 50 9 55 4 28 20 31 126 30 71 -1 114 3 120 10 5
6 11 31 12 55 l3 45 -115 0 -115 0 3 25 c2 14 7 41 12 60 l9 35 125 -1 c138 0
130 -4 141 70 l7 46 -205 0 -205 0 -7 -37z"/>
<path d="M10952 4693 c-10 -16 -43 -68 -73 -118 -30 -49 -57 -91 -61 -93 -5
-2 -8 -7 -8 -12 0 -5 -30 -57 -67 -117 -111 -182 -133 -218 -133 -223 0 -3 34
-5 75 -5 69 0 75 1 87 25 7 14 26 46 41 73 l29 47 113 0 c126 0 122 3 132 -80
3 -25 9 -49 14 -55 14 -14 150 -14 155 0 3 7 -7 63 -21 126 -15 63 -28 121
-30 129 -29 130 -67 299 -71 313 -5 14 -18 17 -84 17 -75 0 -80 -1 -98 -27z
m82 -214 c2 -13 7 -41 11 -61 5 -29 4 -38 -6 -39 -137 -6 -130 -7 -123 15 4
12 27 57 52 101 l46 79 8 -35 c4 -20 9 -47 12 -60z"/>
<path d="M11482 4668 c-6 -32 -6 -55 -1 -59 5 -3 45 -5 89 -4 44 1 80 0 80 -1
0 0 -5 -26 -11 -55 -6 -30 -12 -65 -15 -79 -3 -14 -16 -81 -29 -150 -14 -69
-27 -141 -30 -160 l-5 -35 75 -1 c60 0 76 3 79 15 5 16 41 200 51 256 6 38 13
73 21 105 3 14 8 42 11 63 6 41 2 40 112 41 l74 1 12 58 11 57 -256 0 -257 0
-11 -52z"/>
<path d="M12234 4603 c-20 -65 -63 -196 -95 -292 -32 -96 -56 -177 -54 -180 3
-2 34 -5 70 -6 l65 -1 24 80 c13 45 37 122 52 171 l27 90 12 -70 c7 -38 18
-110 25 -160 7 -49 17 -94 22 -100 5 -5 35 -10 67 -10 l58 -1 92 170 92 171
-5 -80 c-11 -150 -17 -220 -21 -232 -7 -20 16 -27 86 -28 61 -1 67 1 66 20 0
11 3 74 6 140 4 66 10 167 13 225 3 58 7 129 9 158 l4 53 -80 -3 -80 -3 -40
-75 c-23 -41 -66 -124 -96 -183 -30 -60 -57 -107 -59 -104 -2 2 -6 19 -8 38
-3 19 -7 48 -10 64 -8 49 -27 168 -31 199 -9 66 -10 66 -95 66 l-78 0 -38
-117z"/>
<path d="M13175 4708 c-5 -16 -103 -524 -107 -558 l-3 -25 200 0 c110 -1 205
0 212 3 12 4 22 35 29 87 l4 31 -126 -1 c-69 0 -129 2 -134 5 -4 3 -3 32 4 65
l12 60 121 -1 122 0 8 50 c5 28 5 53 1 57 -4 3 -58 5 -119 4 l-110 -1 5 30
c14 71 16 79 21 84 3 4 60 6 127 7 136 0 123 -7 141 83 l7 32 -206 0 c-155 0
-206 -3 -209 -12z"/>
<path d="M13851 4558 c-18 -90 -35 -176 -38 -193 -2 -16 -13 -72 -24 -124 -10
-51 -19 -99 -19 -105 0 -15 125 -15 139 0 4 5 14 43 21 84 8 41 14 77 15 80 0
3 7 35 14 73 7 37 16 67 20 67 3 0 42 -70 86 -155 46 -90 86 -156 95 -156 45
-4 140 -3 140 1 0 3 9 50 20 105 11 54 23 113 26 130 3 16 9 48 14 70 5 22 11
58 15 80 3 22 12 68 20 103 24 104 26 102 -53 102 l-69 0 -11 -52 c-6 -29 -14
-66 -17 -83 -3 -16 -7 -34 -9 -40 -1 -5 -8 -43 -16 -83 -7 -40 -16 -69 -20
-65 -8 9 -61 107 -130 241 l-43 82 -72 0 -72 0 -32 -162z"/>
<path d="M14655 4708 c-16 -45 -22 -97 -11 -101 6 -2 46 -3 89 -2 l79 1 -7
-35 c-4 -20 -9 -45 -11 -56 -7 -44 -14 -76 -43 -224 -17 -85 -28 -157 -26
-160 10 -10 136 -7 145 4 7 8 65 286 85 405 11 69 8 67 95 65 43 -1 83 1 88 4
6 3 13 22 16 42 3 20 8 43 12 52 6 16 -15 17 -250 17 -196 0 -258 -3 -261 -12z"/>
<path d="M460 3255 c-4 -5 -10 -23 -13 -40 -5 -30 -9 -47 -67 -315 -52 -236
-120 -553 -125 -580 -3 -14 -14 -65 -25 -115 -11 -49 -22 -99 -24 -110 -3 -11
-26 -117 -51 -235 -26 -118 -49 -226 -51 -240 -3 -14 -11 -53 -19 -86 -8 -34
-16 -73 -19 -85 -2 -13 -12 -58 -21 -99 -19 -84 -19 -88 -34 -150 -6 -25 -11
-48 -11 -53 0 -4 3531 -6 7847 -5 l7847 3 93 430 c51 237 95 441 97 455 3 14
37 171 76 350 39 179 72 334 74 345 12 58 78 362 95 440 11 49 18 92 15 94
-10 11 -15676 6 -15684 -4z m3280 -309 c222 -41 376 -187 426 -401 14 -64 18
-100 18 -195 0 -94 -6 -164 -18 -225 -7 -34 -27 -109 -33 -125 -3 -8 -7 -22
-9 -30 -8 -40 -101 -205 -149 -262 -51 -63 -157 -158 -175 -158 -5 0 -15 -6
-22 -13 -15 -15 -129 -62 -173 -71 -67 -14 -83 -16 -155 -17 -256 -2 -450 122
-533 342 -37 97 -55 322 -33 419 3 13 8 42 12 64 14 95 108 334 135 344 5 2 9
10 9 18 0 8 4 14 9 14 5 0 12 8 15 18 9 28 120 136 183 178 69 45 157 83 233
98 57 12 200 13 260 2z m7430 0 c123 -23 224 -75 296 -153 24 -27 44 -52 44
-56 0 -4 8 -20 17 -34 16 -24 34 -67 50 -114 4 -13 -9 -22 -53 -38 -32 -12
-62 -25 -68 -29 -6 -3 -15 -7 -21 -8 -5 -1 -30 -10 -55 -21 -103 -46 -94 -46
-119 9 -47 102 -130 157 -238 158 -137 0 -261 -86 -333 -234 -22 -44 -47 -108
-56 -141 -16 -63 -29 -250 -17 -268 3 -6 7 -23 8 -38 4 -40 39 -111 76 -154
97 -110 310 -118 408 -13 17 18 31 39 31 46 0 6 4 12 9 12 5 0 11 10 14 23 3
12 8 31 12 42 6 19 2 20 -92 20 -99 -1 -118 6 -104 34 5 9 16 67 26 129 l18
112 36 1 c45 0 405 0 447 0 32 -1 52 -29 34 -48 -4 -4 -11 -31 -14 -58 -9 -79
-51 -234 -85 -313 -63 -149 -149 -245 -275 -305 -87 -43 -164 -56 -301 -52
-121 3 -142 6 -160 16 -5 4 -28 12 -50 19 -22 7 -57 24 -77 37 -21 13 -38 21
-38 17 0 -6 -107 102 -126 127 -15 20 -60 109 -73 144 -23 63 -38 175 -35 272
3 105 7 140 28 238 25 113 96 270 161 353 19 25 101 107 136 137 70 60 209
120 302 131 28 4 53 7 55 9 5 4 148 -3 182 -9z m-9205 -20 c175 -29 278 -97
338 -224 24 -51 30 -79 32 -145 11 -268 -114 -458 -347 -532 -92 -29 -174 -37
-408 -39 -148 -1 -175 -3 -175 -16 0 -8 -3 -19 -6 -25 -4 -5 -10 -32 -14 -60
-3 -27 -20 -124 -37 -215 -17 -91 -31 -172 -33 -180 -2 -12 -27 -15 -148 -16
-81 -1 -147 1 -147 5 0 3 7 44 15 91 9 47 18 101 21 120 3 19 10 54 15 77 5
24 8 46 7 50 0 5 1 15 5 23 3 8 20 101 37 205 18 105 34 199 36 210 3 11 7 35
10 54 3 18 8 43 10 55 2 11 8 46 13 76 11 62 53 299 72 405 7 39 16 75 20 80
8 11 616 12 684 1z m3773 0 c97 -12 206 -58 267 -114 85 -77 127 -261 93 -402
-5 -19 -10 -42 -13 -52 -16 -69 -96 -181 -173 -240 -30 -24 -118 -68 -136 -68
-8 0 -18 -4 -21 -10 -7 -11 26 -123 37 -128 5 -2 6 -7 4 -11 -3 -4 22 -90 55
-192 33 -101 62 -196 64 -211 l5 -27 -154 1 -154 0 -11 26 c-5 15 -44 133 -85
263 l-76 235 -152 0 -151 -1 -12 -60 c-7 -33 -15 -80 -19 -104 -3 -25 -15 -92
-25 -150 -28 -150 -35 -195 -33 -203 1 -3 -65 -5 -146 -5 l-147 2 0 30 c0 17
2 37 6 45 4 8 10 35 13 60 2 25 14 97 26 160 11 63 23 127 25 142 2 15 13 78
24 140 11 62 23 126 25 142 3 16 10 53 16 81 6 29 10 56 9 61 -1 5 0 16 4 24
4 12 72 393 94 535 3 17 9 32 13 35 13 8 658 4 728 -4z m2136 5 c15 -1 17 -6
11 -28 -3 -15 -8 -41 -11 -58 -2 -16 -6 -41 -9 -55 -3 -14 -8 -45 -12 -70 -11
-83 1 -78 -219 -78 -112 0 -200 -4 -206 -10 -5 -5 -11 -20 -13 -33 -6 -45 -35
-214 -50 -294 -3 -16 -7 -39 -9 -50 -2 -11 -9 -49 -15 -85 -6 -36 -13 -78 -16
-95 -3 -16 -8 -41 -11 -55 -3 -13 -7 -40 -10 -60 -2 -19 -6 -46 -9 -60 -10
-49 -15 -76 -30 -165 -9 -49 -20 -110 -25 -135 -9 -44 -17 -93 -19 -117 -1 -8
-43 -11 -146 -11 -129 -1 -145 1 -145 16 0 16 16 121 25 167 9 48 24 133 29
165 3 19 7 44 10 55 2 11 7 40 11 65 4 25 9 54 11 65 2 11 7 34 9 50 8 42 43
244 49 280 3 17 8 41 11 55 7 34 34 199 37 229 l3 24 -208 -1 c-114 -1 -205 3
-202 7 2 5 7 26 10 47 3 22 8 50 11 62 3 13 7 42 10 64 3 21 7 47 9 56 2 9 4
25 4 34 1 9 9 18 18 20 15 3 1050 2 1097 -1z m987 0 c4 -1 3 -18 -2 -38 -4
-21 -18 -94 -29 -163 -12 -69 -30 -172 -40 -230 -11 -58 -22 -118 -25 -135 -2
-16 -7 -41 -10 -55 -3 -14 -7 -38 -10 -55 -3 -16 -7 -43 -10 -60 -7 -38 -17
-138 -19 -190 -3 -43 15 -129 32 -162 18 -32 66 -69 116 -88 59 -23 193 -17
250 10 48 23 129 104 122 122 -3 7 -2 13 3 13 15 0 68 146 57 157 -3 4 -2 11
3 17 5 6 11 31 15 56 3 25 8 56 10 70 8 38 38 212 41 235 2 11 6 34 9 50 7 35
56 318 61 355 9 57 17 85 25 90 7 5 259 6 281 1 3 0 0 -36 -8 -78 -7 -43 -16
-93 -19 -112 -3 -18 -7 -43 -10 -55 -10 -53 -56 -314 -60 -341 -2 -16 -8 -50
-13 -75 -5 -25 -12 -65 -16 -90 -3 -25 -8 -52 -10 -60 -2 -8 -7 -28 -10 -45
-27 -158 -84 -315 -142 -391 -12 -17 -20 -34 -15 -38 4 -4 3 -6 -3 -5 -5 2
-32 -18 -60 -45 -41 -40 -185 -127 -185 -112 0 3 -15 -1 -32 -8 -55 -23 -213
-33 -313 -21 -27 4 -60 7 -72 8 -13 1 -23 5 -23 10 0 4 -8 7 -17 7 -29 0 -135
58 -171 93 -46 44 -84 102 -110 167 -22 55 -40 180 -36 242 5 66 14 154 19
178 3 14 9 50 15 80 5 30 11 64 13 75 5 22 14 74 21 120 5 31 32 190 41 238 3
15 7 39 10 55 9 50 25 147 28 167 5 38 13 40 154 39 76 -1 141 -2 144 -3z
m4224 -2 c5 -5 34 -134 40 -179 2 -21 15 -84 40 -200 12 -59 205 -1022 210
-1047 l5 -32 -157 2 -157 2 -12 75 c-7 41 -15 84 -17 95 -5 21 -20 123 -21
140 -1 6 -96 10 -265 10 l-264 0 -33 -62 c-18 -34 -56 -106 -84 -161 l-53 -99
-163 -2 -162 -1 30 58 c17 31 55 100 84 153 30 54 54 102 54 107 0 6 4 12 8
14 4 2 40 62 79 133 105 192 125 229 133 240 4 6 24 42 44 80 21 39 46 86 57
105 12 19 32 54 45 78 14 23 22 42 19 42 -4 0 0 6 7 14 7 7 66 109 131 227
l119 215 139 -1 c76 -1 141 -4 144 -6z m1523 2 c7 -1 11 -5 8 -9 -3 -5 -10
-36 -15 -70 -6 -34 -16 -90 -22 -124 -6 -35 -12 -74 -14 -88 -2 -14 -7 -37
-10 -52 -6 -34 -10 -53 -36 -198 -11 -63 -22 -126 -24 -140 -12 -72 -15 -87
-19 -110 -3 -14 -15 -81 -27 -150 -11 -69 -22 -128 -24 -131 -2 -3 -6 -26 -9
-51 l-6 -46 323 -1 c177 0 339 -1 360 -1 l38 0 -5 -37 c-4 -21 -13 -73 -22
-116 -8 -43 -17 -90 -18 -105 l-3 -27 -510 -2 -510 -1 14 76 c7 43 15 91 16
107 2 17 6 35 9 40 3 6 9 33 12 60 4 28 11 77 17 110 6 33 13 70 15 83 2 12 6
34 9 50 3 15 23 128 44 252 22 124 49 277 60 340 28 157 29 160 35 202 3 21
10 58 16 83 6 26 8 49 6 53 -3 6 233 8 292 3z"/>
<path d="M3510 2653 c-8 -2 -22 -7 -30 -10 -8 -4 -17 -7 -20 -8 -24 -6 -76
-42 -114 -81 -52 -51 -89 -110 -117 -184 -32 -84 -48 -191 -44 -300 6 -211
124 -336 302 -325 64 4 79 8 138 36 94 46 175 154 221 296 25 79 29 102 28
218 0 110 -3 138 -22 185 -32 82 -106 155 -165 164 -9 1 -20 5 -23 9 -8 8
-131 8 -154 0z"/>
<path d="M1519 2641 c0 -3 -2 -19 -5 -36 -2 -16 -6 -44 -8 -61 -1 -17 -5 -35
-8 -40 -3 -5 -9 -31 -12 -59 -4 -27 -11 -68 -16 -90 -20 -87 -34 -80 183 -79
218 1 262 9 314 62 39 39 52 69 59 131 5 54 -9 101 -39 127 -48 42 -84 48
-279 49 -104 1 -188 -1 -189 -4z"/>
<path d="M5249 2636 c-3 -21 -8 -51 -13 -78 -6 -29 -10 -48 -20 -108 -3 -19
-8 -48 -11 -65 -3 -16 -8 -48 -11 -70 l-6 -41 223 2 c212 1 227 2 273 24 50
24 111 93 102 117 -3 7 -1 15 5 18 17 11 7 105 -15 138 -42 62 -76 70 -313 72
-148 1 -213 -2 -214 -9z"/>
<path d="M12840 2468 c-43 -82 -124 -237 -167 -317 -19 -35 -32 -66 -29 -69 3
-3 76 -5 161 -6 l155 -1 -5 30 c-3 17 -7 44 -10 60 -3 17 -10 57 -15 90 -14
74 -16 88 -31 183 -7 42 -16 81 -19 85 -4 5 -22 -20 -40 -55z"/>
</g>
</svg>
